# xmcd
#
# Track frame offsets:
#	150
#	28349
#	41214
#	53456
#	67913
#	79464
#	93487
#	106231
#	119319
#	133075
#	145791
#	158867
#	169906
#	180936
#	195928
#	208850
#	221717
#	232632
#
# Disc length: 3259 seconds
#
# Revision: 0
# Processed by: cddbd v1.5.2PL0 Copyright (c) Steve Scherf et al.
# Submitted via: dBpowerAMP V4.0
#
DISCID=f70cb912
DTITLE=BBKing - Blues Integral collection
DYEAR=1995
DGENRE=Blues
TTITLE0=Sweet Sixtenn
TTITLE1=Shotgun Blues
TTITLE2=Bim Bam
TTITLE3=Whole Lotta'Love
TTITLE4=Quit my Baby
TTITLE5=I was blind
TTITLE6=What can I do
TTITLE7=Some Day Somewhere
TTITLE8=Sneaking Around
TTITLE9=Ten long years
TTITLE10=Be careful with a fool
TTITLE11=Days of old
TTITLE12=Young Dreamers
TTITLE13=Trouble in Mind
TTITLE14=Down now
TTITLE15=Broke and Hungry
TTITLE16=What a way to spend the night
TTITLE17=A woman don't care
EXTD=BBKing
EXTT0=
EXTT1=
EXTT2=
EXTT3=
EXTT4=
EXTT5=
EXTT6=
EXTT7=
EXTT8=
EXTT9=
EXTT10=
EXTT11=
EXTT12=
EXTT13=
EXTT14=
EXTT15=
EXTT16=
EXTT17=
PLAYORDER=
